IKResults
version=1
nRows=24
nColumns=24
inDegrees=yes

Units are S.I. units (second, meters, Newtons, ...)
If the header above contains a line with 'inDegrees', this indicates whether rotational values are in degrees (yes) or radians (no).

endheader
time	pelvis_tilt	pelvis_list	pelvis_rotation	pelvis_tx	pelvis_ty	pelvis_tz	hip_flexion_r	hip_adduction_r	hip_rotation_r	knee_angle_r	ankle_angle_r	subtalar_angle_r	mtp_angle_r	hip_flexion_l	hip_adduction_l	hip_rotation_l	knee_angle_l	ankle_angle_l	subtalar_angle_l	mtp_angle_l	lumbar_extension	lumbar_bending	lumbar_rotation
      4.02000000	      3.08661094	      2.90535577	    -95.28668421	     -0.19894757	      0.92856645	     -3.74958902	    -10.48051736	     -1.44100894	      4.10218926	    -36.31126251	     -0.77179797	     -0.21004044	      0.00000000	     34.35242281	      4.18137827	      2.38781298	    -24.81356550	     -4.40626655	    -20.76032397	      0.00000000	     -9.41627711	     -7.06830116	     13.16908653
      4.03000000	      3.50559741	      2.63047265	    -94.91633333	     -0.19732772	      0.93010973	     -3.73327513	     -9.33075189	     -2.31843654	      2.85438541	    -39.42737956	     -3.50852869	      0.70103858	      0.00000000	     33.76757550	      5.25789354	      3.34100599	    -25.99634008	     -4.32475249	    -21.57963871	      0.00000000	     -9.65555543	     -7.55537039	     12.61841319
      4.04000000	      3.92246008	      2.36110587	    -94.54365858	     -0.19568067	      0.93192830	     -3.71739906	     -7.98665033	     -3.19847625	      1.68970116	    -42.64616709	     -6.21241003	      1.13823374	      0.00000000	     32.99549609	      6.36796319	      4.24600503	    -27.00249930	     -3.53931253	    -22.73749551	      0.00000000	     -9.88165098	     -8.00068859	     11.94262962
      4.05000000	      4.36226995	      2.12325373	    -94.15510870	     -0.19396078	      0.93399031	     -3.70203518	     -6.36975730	     -4.07895511	      0.66658934	    -45.97111644	     -9.33418576	     -0.56112963	      0.00000000	     32.00357074	      7.47834286	      5.07937181	    -27.62265852	     -2.99762925	    -24.91810132	      0.00000000	    -10.08946373	     -8.46024772	     11.34641797
      4.06000000	      4.75702730	      1.90788033	    -93.79934312	     -0.19238954	      0.93637517	     -3.68716977	     -4.59024037	     -4.87216511	     -0.11688990	    -49.17258994	    -11.99993091	     -0.62046696	      0.00000000	     30.92551117	      8.44783193	      5.68489205	    -27.96079087	     -2.32094505	    -25.59872665	      0.00000000	    -10.37494671	     -8.81768675	     10.52144596
      4.07000000	      5.06434850	      1.67956419	    -93.43045185	     -0.19082187	      0.93919223	     -3.67258801	     -2.80339116	     -5.41376222	     -0.49679672	    -52.07195078	    -14.34192702	     -2.37837385	      0.00000000	     29.71283263	      9.29771297	      6.44901918	    -28.08211322	     -1.41757515	    -26.61222855	      0.00000000	    -10.71997249	     -9.01038644	      9.56447670
      4.08000000	      5.22007206	      1.41678393	    -93.17618937	     -0.18957928	      0.94205968	     -3.65809878	     -1.07490568	     -5.62608981	     -0.52861630	    -54.82816207	    -13.31448955	     -4.46971059	      0.00000000	     28.39546815	      9.86430562	      6.88062996	    -28.00884893	     -0.98235463	    -27.17887542	      0.00000000	    -10.95804754	     -9.04575814	      9.22660544
      4.09000000	      5.24945890	      1.13011577	    -92.91356806	     -0.18878202	      0.94504986	     -3.64400446	      0.70322779	     -5.60793730	     -0.55988286	    -57.58373576	    -11.79078966	     -5.94967929	      0.00000000	     27.00548095	     10.14694449	      7.08270784	    -27.90308394	     -0.36164701	    -27.51423270	      0.00000000	    -11.27955669	     -9.02336975	      8.68794479
      4.10000000	      5.21376788	      0.84212663	    -92.71994718	     -0.18819396	      0.94817689	     -3.63006886	      2.56977466	     -5.48713302	     -0.55355054	    -59.98069779	     -9.72882484	     -7.32843823	      0.00000000	     25.54813056	     10.23185427	      7.08188368	    -27.67453246	      0.30201714	    -27.57357405	      0.00000000	    -11.64080283	     -8.89624394	      8.23106033
      4.11000000	      5.13445929	      0.52942243	    -92.59494328	     -0.18770191	      0.95142165	     -3.61627320	      4.50697224	     -5.36516275	     -0.55453381	    -61.99534372	     -8.16062649	     -8.43960981	      0.00000000	     23.99798188	     10.15895762	      6.81667220	    -27.26836876	      1.06869911	    -27.35658079	      0.00000000	    -12.02753831	     -8.66819842	      7.82137138
      4.12000000	      4.94128428	      0.24926104	    -92.46643349	     -0.18739362	      0.95455945	     -3.60265702	      6.49539615	     -5.04541175	     -0.54100838	    -63.69781366	     -7.41624054	    -10.64722333	      0.00000000	     22.47025922	      9.87585353	      6.32417941	    -26.85530534	      3.41749285	    -24.32754946	      0.00000000	    -12.33515324	     -8.31245529	      7.54616612
      4.13000000	      4.75903124	     -0.06279497	    -92.42045190	     -0.18719630	      0.95758961	     -3.58903751	      8.47623451	     -4.74778484	     -0.48787536	    -65.11670185	     -5.86977540	    -11.87081113	      0.00000000	     20.84604068	      9.49379482	      5.44687428	    -26.29936330	      3.88587912	    -23.70414984	      0.00000000	    -12.70526938	     -8.02136420	      7.38124395
      4.14000000	      4.55378372	     -0.40650783	    -92.37446256	     -0.18700113	      0.96039704	     -3.57539759	     10.33390617	     -4.53034830	     -0.58627428	    -66.08910375	     -4.41551106	    -13.54975556	      0.00000000	     19.21370350	      9.13012922	      4.70171288	    -25.80107488	      4.87820130	    -22.61712848	      0.00000000	    -13.10055454	     -7.70005818	      7.21614141
      4.15000000	      4.45706509	     -0.76873311	    -92.38076108	     -0.18658483	      0.96311664	     -3.56144486	     12.25773924	     -4.37884656	     -0.65744219	    -66.94733915	     -5.04361008	    -16.75819881	      0.00000000	     17.49950434	      8.86336189	      3.80765614	    -25.18516043	      7.39317598	    -18.24399835	      0.00000000	    -13.39877699	     -7.39617865	      7.12803690
      4.16000000	      4.34289750	     -1.10341489	    -92.33759579	     -0.18625425	      0.96573747	     -3.54766808	     14.01276760	     -4.31876132	     -0.89858750	    -67.23761048	     -3.66564084	    -17.89010580	      0.00000000	     15.82147167	      8.66089843	      3.22899482	    -24.56040839	      7.78793456	    -17.79885467	      0.00000000	    -13.77375269	     -7.16919784	      7.00320344
      4.17000000	      4.30601898	     -1.44172961	    -92.21580759	     -0.18566926	      0.96807777	     -3.53401036	     15.81036440	     -4.38688764	     -1.25037097	    -67.37316999	     -2.55468922	    -19.23148348	      0.00000000	     14.11668268	      8.63003707	      2.96287514	    -23.87001626	      8.48017128	    -17.14432008	      0.00000000	    -14.16073665	     -6.96339496	      6.75088444
      4.18000000	      4.22619952	     -1.79621603	    -92.03656936	     -0.18502774	      0.97027108	     -3.52030927	     17.41486892	     -4.44668833	     -1.68902660	    -67.05472777	     -1.98268973	    -20.61647992	      0.00000000	     12.32056541	      8.63486826	      3.14301535	    -23.06126656	      9.41880109	    -16.31726961	      0.00000000	    -14.48602439	     -6.58155785	      6.40857722
      4.19000000	      4.12453626	     -2.13285386	    -91.78854064	     -0.18424933	      0.97213986	     -3.50659536	     18.92165876	     -4.50707969	     -2.16786456	    -66.41773960	     -1.75428336	    -20.86082615	      0.00000000	     10.55427666	      8.67572345	      3.66089579	    -22.28702948	      9.57972882	    -16.24773061	      0.00000000	    -15.00155206	     -6.26086009	      6.33003886
      4.20000000	      4.01424332	     -2.43594731	    -91.46903838	     -0.18347549	      0.97357371	     -3.49289277	     20.38923126	     -4.58511368	     -2.69733203	    -65.52608982	     -0.86988431	    -22.24214505	      0.00000000	      8.88395892	      8.66802707	      4.07067451	    -21.59263694	     11.20211224	    -15.30224041	      0.00000000	    -15.29282949	     -5.96548388	      5.64584691
      4.21000000	      3.89998783	     -2.66698546	    -91.08496649	     -0.18264534	      0.97468947	     -3.47929840	     21.78746977	     -4.67237981	     -3.23031586	    -64.29283336	     -0.02368736	    -22.68527324	      0.00000000	      7.24955266	      8.72484115	      5.10521796	    -20.90055887	     11.54240902	    -15.44808150	      0.00000000	    -15.60927912	     -5.61424524	      5.24701981
      4.22000000	      3.75245899	     -2.88920393	    -90.64017743	     -0.18181366	      0.97549504	     -3.46566887	     23.04674702	     -4.74921524	     -3.79979381	    -62.72179372	      0.29838306	    -22.78771856	      0.00000000	      5.65876710	      8.68801081	      5.99117420	    -20.20838035	     11.78817248	    -15.57965609	      0.00000000	    -15.90434534	     -5.10547461	      4.99562567
      4.23000000	      3.67852593	     -3.07964994	    -90.18534493	     -0.18099128	      0.97597658	     -3.45184704	     24.25423075	     -4.86030174	     -4.22649466	    -60.96930337	      1.35852667	    -23.00510527	      0.00000000	      4.03410307	      8.67731174	      6.80495664	    -19.42594912	     12.68239260	    -15.97832383	      0.00000000	    -16.12866420	     -4.88380209	      4.03519691
      4.24000000	      3.54121344	     -3.19200439	    -89.63024520	     -0.18028740	      0.97603016	     -3.43834931	     25.38450523	     -4.96129870	     -4.75709215	    -58.84871583	      1.52206565	    -22.92114814	      0.00000000	      2.54119653	      8.53260124	      7.56179191	    -18.66461241	     12.90014053	    -16.04501165	      0.00000000	    -16.29594409	     -4.39777964	      3.78226193
      4.25000000	      3.49880786	     -3.28526818	    -89.06618681	     -0.17957348	      0.97572663	     -3.42466741	     26.43712196	     -5.18008978	     -5.20238248	    -56.55664590	      2.32996187	    -22.64553490	      0.00000000	      0.98575937	      8.41194948	      8.13074111	    -17.78881776	     13.80072667	    -16.13986366	      0.00000000	    -16.43655220	     -4.19008091	      2.64501334
